<svg width="24" height="24" viewBox="0 0 24 24" fill="none" xmlns="http://www.w3.org/2000/svg">
<path d="M15.5 15.75C15.32 15.75 15.12 15.74 14.93 15.73C14.56 15.71 14.26 15.41 14.23 15.04C14.01 12.25 11.74 9.98999 8.95999 9.76999C8.58999 9.73999 8.28999 9.44001 8.26999 9.07001C8.25999 8.88001 8.25 8.69 8.25 8.5C8.25 4.5 11.5 1.25 15.5 1.25C19.5 1.25 22.75 4.5 22.75 8.5C22.75 12.5 19.5 15.75 15.5 15.75ZM9.75 8.35999C12.73 8.87999 15.12 11.27 15.64 14.25C18.75 14.17 21.25 11.63 21.25 8.5C21.25 5.33 18.67 2.75 15.5 2.75C12.38 2.75 9.83 5.24999 9.75 8.35999Z" fill="#292D32"/>
<path d="M8.5 22.75C4.5 22.75 1.25 19.5 1.25 15.5C1.25 11.5 4.5 8.25 8.5 8.25C8.68 8.25 8.88001 8.25999 9.07001 8.26999C12.6 8.54999 15.46 11.41 15.73 14.92C15.74 15.12 15.75 15.31 15.75 15.5C15.75 19.5 12.5 22.75 8.5 22.75ZM8.5 9.75C5.33 9.75 2.75 12.33 2.75 15.5C2.75 18.67 5.33 21.25 8.5 21.25C11.67 21.25 14.25 18.67 14.25 15.5C14.25 15.34 14.24 15.18 14.23 15.03C14.01 12.26 11.75 9.98999 8.95999 9.76999C8.81999 9.75999 8.66 9.75 8.5 9.75Z" fill="#292D32"/>
<path d="M3 7.34C2.77 7.34 2.54999 7.29999 2.32999 7.20999C1.66999 6.93999 1.25 6.3 1.25 5.59V3C1.25 2.04 2.04 1.25 3 1.25H5.59C6.3 1.25 6.92999 1.66999 7.20999 2.32999C7.47999 2.98999 7.32999 3.73999 6.82999 4.23999L4.23999 6.82999C3.89999 7.15999 3.46 7.34 3 7.34ZM3 2.75C2.86 2.75 2.75 2.86 2.75 3V5.59C2.75 5.74 2.84999 5.80001 2.89999 5.82001C2.95999 5.84001 3.07001 5.86999 3.17001 5.76999L5.76001 3.17999C5.86001 3.07999 5.84 2.97 5.81 2.91C5.78 2.85 5.71999 2.76001 5.57999 2.76001H3V2.75Z" fill="#292D32"/>
<path d="M20.9998 22.7498H18.4098C17.6998 22.7498 17.0698 22.3298 16.7898 21.6698C16.5198 21.0098 16.6698 20.2598 17.1698 19.7598L19.7598 17.1698C20.2598 16.6698 21.0098 16.5198 21.6698 16.7898C22.3298 17.0598 22.7498 17.6998 22.7498 18.4098V20.9998C22.7498 21.9598 21.9598 22.7498 20.9998 22.7498ZM20.9898 18.1598C20.9398 18.1598 20.8798 18.1798 20.8198 18.2398L18.2298 20.8298C18.1298 20.9298 18.1498 21.0398 18.1798 21.0998C18.2098 21.1598 18.2698 21.2498 18.4098 21.2498H20.9998C21.1398 21.2498 21.2498 21.1398 21.2498 20.9998V18.4098C21.2498 18.2598 21.1498 18.1998 21.0998 18.1798C21.0698 18.1698 21.0298 18.1598 20.9898 18.1598Z" fill="#292D32"/>
<path d="M9.27206 16H6.68934C6.3125 16 6 15.728 6 15.4V13.6C6 13.272 6.3125 13 6.68934 13H9.27206C10.1912 13 11 13.704 11 14.504C11 15.32 10.2187 16 9.27206 16ZM7.37868 14.8H9.27206C9.46507 14.8 9.62132 14.664 9.62132 14.496C9.62132 14.376 9.46507 14.192 9.27206 14.192H7.37868V14.8Z" fill="#292D32"/>
<path d="M9.30283 18H6.62396C6.28286 18 6 17.728 6 17.4V15.6C6 15.272 6.28286 15 6.62396 15H9.30283C10.2346 15 11 15.672 11 16.504C11 17.336 10.2429 18 9.30283 18ZM7.25624 16.8H9.31115C9.57737 16.8 9.7604 16.64 9.7604 16.496C9.7604 16.352 9.57737 16.192 9.31115 16.192H7.25624V16.8Z" fill="#292D32"/>
<path d="M8.5 19C8.22667 19 8 18.7414 8 18.4297V17.5703C8 17.2586 8.22667 17 8.5 17C8.77333 17 9 17.2586 9 17.5703V18.4297C9 18.749 8.77333 19 8.5 19Z" fill="#292D32"/>
<path d="M8.5 14C8.22667 14 8 13.7414 8 13.4297V12.5703C8 12.2586 8.22667 12 8.5 12C8.77333 12 9 12.2586 9 12.5703V13.4297C9 13.749 8.77333 14 8.5 14Z" fill="#292D32"/>
<path d="M15.25 11.47C14.98 11.47 14.72 11.32 14.59 11.08L13.81 9.65999L12.39 8.87999C12.15 8.74999 12 8.49999 12 8.21999C12 7.93999 12.15 7.68998 12.39 7.55998L13.81 6.77998L14.59 5.36C14.85 4.88 15.64 4.88 15.91 5.36L16.69 6.77998L18.11 7.55998C18.35 7.68998 18.5 7.93999 18.5 8.21999C18.5 8.49999 18.35 8.74999 18.11 8.87999L16.69 9.65999L15.91 11.08C15.78 11.32 15.52 11.47 15.25 11.47ZM14.31 8.21999L14.72 8.45C14.85 8.52 14.95 8.61998 15.02 8.74998L15.25 9.15999L15.48 8.74998C15.55 8.61998 15.65 8.52 15.78 8.45L16.19 8.21999L15.78 7.98997C15.65 7.91997 15.55 7.81999 15.48 7.68999L15.25 7.27998L15.02 7.68999C14.95 7.81999 14.85 7.91997 14.72 7.98997L14.31 8.21999Z" fill="#292D32"/>
</svg>
